<mxfile host="Electron" modified="2024-07-26T13:20:33.494Z" agent="Mozilla/5.0 (Windows NT 10.0; Win64; x64) AppleWebKit/537.36 (KHTML, like Gecko) draw.io/24.2.5 Chrome/120.0.6099.109 Electron/28.1.0 Safari/537.36" etag="sJ66JkUsjBiNT0A6DzDS" version="24.2.5" type="device">
  <diagram name="Page-1" id="qjn5SrOctKg_g5458ICV">
    <mxGraphModel dx="2082" dy="1205" grid="1" gridSize="10" guides="1" tooltips="1" connect="1" arrows="1" fold="1" page="1" pageScale="1" pageWidth="850" pageHeight="1100" math="0" shadow="0">
      <root>
        <mxCell id="0" />
        <mxCell id="1" parent="0" />
        <mxCell id="Y603PeoiF3RydWQMArEt-34" value="" style="shape=image;verticalLabelPosition=bottom;labelBackgroundColor=default;verticalAlign=top;aspect=fixed;imageAspect=0;image=data:image/png,iVBORw0KGgoAAAANSUhEUgAAAecAAAEICAYAAABlHzwDAAAgAElEQVR4Ae2d368kx3WYDcLwiwD6wXBjySheSRRFiistzb0LrbSkyFkmKy5Xq2TJpUNERmzPEloDtjYOKRpknL2kkjtLWVJgMcswBOPIjtQGzA0IguCDn+cC9L8xl/9JBaeqT8/pmp4fPdNzp3rmexj0THd1dXWdr/qrqu57+ze+e+V77sSJE3yoAxiAARiAARjYIAPfOv+4O3nypP/8BnKmY0LnDAZgAAZgYPMMTMj54YcfdnyoAxiAARiAARjYHAMTcqbHtPkeEzEgBjAAAzCw2wwg5w3eU6Dx7XbjI/7EHwZgYBoDyBk589AHDMAADMBAYgwg58QCMq0XxXp62DAAAzCwOwxsRM4//vkdZz+v7h+4Cxcv0XOjowADMAADMAADJ064JOSsor589RpBoWHCAAzAAAzsPAON5PzIqVPuwQcfrK00WS/bF5l2URk3XS6Sd9bP3dHRZ2446C1Ulk3luchxu5xmHXGoq48su+JufXDX3b37/8rPnRtnJ2If0u27K1k2ue3KfrnvBx/Up6k7tq7Lzt5wdz54x904O5m3ppm3XPQ85uWT0vZwTtPrJTP1LvGri1vb59NerCY5qYvhrSvLM7Hquc+r/7r8wz6T51abtgXu43yXKXOcx7b8biTng9tvuXffe39C0CJmWS/bF6mYplLW9IvkvQ4prCPPRc6ly2naqDPNI+9Pv8DFjTn8vus+uHVlgsUrt+66+GIZLtbji5H8vrGBC2p8Hl2OvZZ91jmJmD8wHZosO+tu3Ll7LILW8q2yrGXJdxSnd0ZWOd4y+86q/1n51Z3brPRtblu2zG2WIZW8GslZJWwFXbdu3smpbJsu5+W7ru0qiTZH4+sq6zbl28+P/CxIEznL+cfC1Trx6yNpe0ncueHO1oyodb/jWG7jRWnaOamI53WUjqPelz1GLUtbIue6c1u2npruN42ZpvlsQ/pGcpYTtjI+s7fnR8xW1otUSlMpa/o47yy77vJRuIDLVPYov+6sSLPewA1HR240PPRLn2Z06PL80F/0dR/Jt9wvz8dphwPXy7LxtmKqXPOV/X0eRbq4fD7fJmUo0tp8n/rdp9xgeORGo0M36IURpB5/pOWr2c+Wu3L+s8qqtwTq6iA+xih3fVM3WmbtwJT1uUCd6fnYPFTMuk5iW1u/NRdEe/G38g3rqyObcDGYHLGVF4krMmUdps112lW33br1jpNp8O/+rkyth3x1240b46ly3c/z4KcCNb8bk/tFU+Oanx5LpuVlZKPT+DpDoOlumPKK/M7eeKdMO60cOpVvR0xlfkV57AXbfze3ElSyuo+WdbJewoxG2H88W6Fx1fj8YG/Pj6I1X19vMtIuOlH2+Fp2e+x//MeB+y93qrMkysGeiVUcD81rkXrQstpbGVqG6rrqjICWQzuDq8ayPKaJu8a53GZjWMRNz1XbivIkdV5/buE8qulquDflmMZfWS6TtkmZlRe7rMtz2vFlv7jetR6WYW5aW7flk+91ZYzPW9uOtPPGcpaDqKA/+viT2mnuuFDxb5Vt02Wcj1zArbRku5WCXvRVYr1BkLKXeNarSE/3i9OKbHSb/150CFQW5TGmyaOUcxD9rDLY86scU6VZiE7zkBGldlDqyqN5xOc0bSQ6Lb0/bz0P20koyqXHrpTLlHlmGTXfmk6DCnpaeX28G8jZp7+yPzF1qg1TLjzaOENDuhsJwQp4LPSy0Z2VeIR74KU0/fRtEJFu02OIOHVqV7fpxU/Louu1EVcYMeeu6UqBFfdzdT8vheJ+ekg77qTINknn0xQzC37dnXfKupKy+jTF+ek5BFHOq5dwYa/sUzNboXGQdLYscs4qzKllL8pVOV8zS1K3/9S8JGZz6qGOJY2BxnAsQGFCGNDl5G0aWxbNZ/FYzuLUxmZ2zCtsRe0kjoc//5X4W77Mtpz6vUmd6T4T52DiLtvqmPH7aHspmLOsaMztMfT7RBnNPXvdVvKbXVlOznIwEfT+G29O3H/WgsxazpPyrH3tNpWBjK7qRmyxODW9prVyVzHpNruv3abfdUSnSy98M7rUToPNR8o+qwyyXdNrvl6M2iHwAtNORf3IVffz5ZkiT59nXVmNUG1Z7Lmp6GV7LE8tuz22P1aRr5ZNl5Iurg/JVz9x/rreLgPU44uObKvr+es+Pn2NGPx+xajWy8FceHTfqY3VpI3LY397kZljV7aZPPR4vkw16+VCORbAlItvtF/lWGb0XuZz60q4HVCU78qtd5wfhfvfItfiOH7f6qh3Xr3cie4lzxs5y8gzlNd0aopy2VFzpey151uzv0k3NS85xzn1UMamSFf+NvfRK3EsYqYdFN22cizN+WiedfGYea4fjDuamoevf3tuBTMqD0lXYSoqh902L61sX6bMEn+V4azjxcf3v6e2oRpmprWXGeds63taGaedty/f2RvLy1kyWPaziJx7//SZq/vEx7SyFHE81f91+bS2lYXsF4tgGTnHecTliX83KYPKyApNvkueZVn7xVR9MVKfVR6tG5Fg3flPlHVNcp5VRt1WNzrW+qjbpmWPG6WsDw2jKhBNL0u9ENh1+t2PZkVUEw1vPPqb3FYzvadTiSYfXy57wbPbzHctiywnjmXkaDshE+mi/Oz2afUzzu+Ku+XLKee8764YWdXtq/VpjzEu+11358475Ug0rB/XZeVczbnJeh2t69LvG6XR/eNjT93f1Evdufhj+IfTpDMyvR70uHruYb8xB7pdlyphK2d7/HHda8dk3OGMz83+tt9DGcZ1a7fZY2mZ7FLqWGRny2fPTdPadJX8Tb2GclTrYnba5cqsZZp3vHi7rQtb75JOWdOl33dB5uw5yn7xJ94ejh1uv0xs2wY5+8ozI8tV5awjQysNlZwdcY6Ke67++P1BeT94IiA6bTtFkCrdg6eq95b1+CpnlfxweFiZytf1deXRcjeVc20d6HmY6WfNX8uoZRaZ2m0zy1iTr9ahzU/XxcsJqP1FYny/0U/HGSHK/r5xltOWN8o/gdLGYqdvdaRQbdBNLjzjtKGs47LJBaA6rT2+IOt5TpzfxL3XYkTb+OI4OVqSY/qLUjSdfevW+FZAfA6L1otc6LUufQzMdL//XcStksZ3CvbdLekgFA/s6fFtuvH+1frzZbtTt7+ts2q5JC/5zKsHTVdhKYpBmcavl3MQFsy5rCGW0+Ixrd60jOU5mz9DtOdWl86yab9L2lm/47KsUmYt16zjxeWx14Rw7DE3/nctM5OczDumlk2Xi563lnepe856sGWXbY2cdWQl06TlNLIZ/ZVSmCNGedBKZaJTrj7PYj/dphLSfDWtHruuPjTtNEGqnOMyiIQl//KYxT1yXy4jSB9IM0Xttxf3hbXc044dl1fT63n5vLQOpkg03qcsr4nDrDLWbSvzMA/86TlMlLm4qJdTnNG0om2Iuq/tLWuDKfdXaRcXWnlAQ7fpqGJWo5y1zZ+rmU67c2PxB8L0ISPtQEiZPvAXESsac5Epyj/eb9xJ8OXwo4GaB8v8epNP9DveVzsXfv2MY2q59T5qXBdyPlq/si3kF0ZUek+vXF9T9rjep+0fpwsX5+XqYXwMG4NxXnJO/+MHz1b+RMx3yIrOotbJKrHU81mI07p6Mzzq9GtZz+UMQngGQMrpy1rz7IKWYypvhg1Nu2yZtXx2qXkudvzAVVzv43hO/ilmHSfzjmnLF/IObXCR85b0G5FzXOi633VT2rKuLm0b61QyKoY28uxaHm3WQZt5raMeRdrx6MseJ254dltb30ODH4+k2sqXfCanFNdZJ/NYWuuxjfTWcZx1nNtxtK111MWqeTY9b+SsvfRopLdqILq4f5tClSnpWTMKqddP04a0zPnIVK8dSS6TB/scr4hTq+/j4LTtc+5imduog6bnjZyRczkb0Yac9c+mZEq8y7MQTRvSIo3XTmPa6cFF9iXNbkt4WvzXwem0Y7W1votlbuPcm553snJuozLIgwsaDMAADMBAFxlAzsXIuYvBo8xcdGAABmBgOxlAzsi5nNamkW9nIyeuxBUGuscAckbOyBkGYAAGYCAxBpBzYgGhh9u9Hi4xI2YwAANtM4CckTM9ZhiAARiAgcQY6LSc4/809ur+gbtw8RKQJQZZ2z1K8mOUAgMwsO0MbEzOp06dcgeD20u91UqDEstZf1++eg1BI2gYgAEYgIHOMrAxOes7od997/2lBa0ybrpUudcts6/f614Z/JZ77ut171z9bffSlG11ebGO3j0MwAAMwMAyDGxMzlLYVQXdVMqafpmKkn2yDDkvW3fsxwUKBmAABhZnYKNylkCtImiVbdPlsoAg58XBWraO2Y86hgEYgIFE3kp1Zm/PffTxJ27/jTcb3R9oKmVNPyvwsYDDNPc9bnD7N90rz91bmda22w4Gn3NPFu+cffKlkF72OXjptxud06yysY2LFgzAAAzsBgOMnKMHJqycw/d73EtPhvvPX3vut9xBcc/ZppPGkj35OffKc79TEXGchka1G42KOBNnGICBVRnYqJxXmdKWE9eRcNPlrEqzQvUj41fudV8rRsQT2wbjEbIdJYuo5bdfxwNklQ7LrLpnGxc0GIABGAgMbEzOq4pZAthUypp+VvAnBDxTzuOpbM0zTHWH9Vn2O+65V+qf/Nb0LLkYwQAMwAAMxAxsTM7r/DtnlfC0ZVwJFSGbJ7LD+lnT2vdMTmU/+Tl3UAg9iBo5x/XNby5EMAADMDCbgY3JuY3ATJPvvPXxsafJWdLZKepZD4TptHYYLYfp7oNXPudeYuTMtHb0XEPMH79nX6SoH+pnFxnotJx3MWCcMxcqGIABGNh+BpAzoxpGtjAAAzAAA4kxgJwTCwg94u3vERNjYgwDMDCPAeSMnOkxwwAMwAAMJMYAck4sIPN6U2ynxw0DMAAD288AckbO9JhhAAZgAAYSYwA5JxYQesTb3yMmxsQYBmBgHgPIGTnTY4YBGIABGEiMAeScWEDm9abYTo8bBmAABrafgU7LOf5PYK/uH7gLFy/RA6TDAQMwAAMw0GkGtkrOKuvLV691Oij0ire/V0yMiTEMwMAsBjYi50dOnXLyVqq6gsl62V63LV6nMm66jPPhN40EBmAABmAgJQY2IueD22+5d997f0LQ+hpJ2b5IJTWVsqZfJG/S0FBhAAZgAAY2xcBG5KwStoKuWzevUlS2TZfz8mU7DRIGYAAGYGCTDGxEznLCVsZn9vb8SNrKepFKaSplTR/nnWU9NxgeuaOjz/wn72cuy667fHTo8vzQjUa562eybjJdnBe/adAwAAMwAAOrMrAxOUvBVdAfffxJ7TT3vJNT2TZdxvlm/dyN8uuVqfQg5yM3HPT8ehWz/o7z4DeNEQZgAAZgoC0GNipnOQkR9P4bb07cf17kBJtKWdPHeWe9gRuOxiKW7TpyHvSyIGefJoyg4/35TYOEARiAARhok4GNy3mVk1HZNl1OO2ZvcDgxrY2caXDTeGE9bMAADKyLAeQc/aG+CFqmridGzsX9Zqa1aYzraozkC1swAAPKAHKWKex+Xj4MNn74KzwQpiNnqTC9D20fHNOKZEmjggEYgAEYaIuBTsu5rUogHxoUDMAADMBASgwg52haO6XgUBYuFjAAAzCwmwwgZ+Rc+RMyLgS7eSEg7sQdBtJiADkjZ+QMAzAAAzCQGAPIObGA0HtNq/dKPIgHDMDAJhhAzsiZHjMMwAAMwEBiDCDnxAKyiR4ax2RkAAMwAANpMYCckTM9ZhiAARiAgcQYQM6JBYTea1q9V+JBPGAABjbBAHI+ccLF/5v71f0Dd+HiJXqSdFxgAAZgAAY2wgByrpGzyvry1WsbCcomemkck9EBDMAADKTDQKfl/MipU1NfNSmvopTti8CmMm66XCTvpmnC6ysPnf2f3k3zIH06DYxYEAsYgIFlGOi0nA9uv+Xefe/9CUGLmGW9bF+kUppKWdMvkjdpaJgwAAMwAANNGei0nFXCVtB16+ZVisq26XJevmynQcIADMAADCzDQKflLCdsZXxmb8+PmK2sF6mUplLW9HHe5Tug+wM3HB3511Dm/czJO6L1NZP2fdD9PKSRbaP8uh/ll3n0svE7pQfjV1ra/ePj85uLAAzAAAxsBwOdl7OAqIL+6ONPaqe558Gqsm26jPPV9z2PhgPXy7LyPdEqVHlvtL4v2u5bK+RSzkdjcU/Z3+bF9+1omMSROMLAbjOwFXIWiEXQ+2+8OXH/eRHAm0pZ08d5W8nKtrm/++MR8WgUHgKz+9jvdfnFx+f3bjdm4k/8YWB7GNgaOa8Cpcq26TI+5jyZ2u3hqezc9WWEnfXcYIic4/rk9/ZcaIglsYSBZgwg5xl/5zxP1jFsVr6ybdZvP8Wt0989uUeNnOP65Hezxkx9UV8wsD0MIOdNydmPlsMDYaNh7nJGzgv92RsXn+25+BBLYgkD0xlAzvxrOqQIAzAAAzCQGAPIObGA0JOc3pOkbqgbGICBXWEAOSNneswwAAMwAAOJMYCcEwvIrvQKOU9GQDAAAzAwnQHkjJzpMcMADMAADCTGAHJOLCD0JKf3JKkb6gYGYGBXGEDOyJkeMwzAAAzAQGIMIOfEArIrvULOkxEQDMAADExnADkjZ3rMMAADMAADiTGAnFsMyO+/9razn6//8L+5L377GaBvsY7paU/vaVM31A0MbA8DyLkQx6lTp9zB4PZSb7XSBmHFbL8/8J3nETSChgEYgAEYWJgB5FzAou+Efve995cWtBVyk+8qd12GN1aFF2HoOpbb0yMmlsQSBmBgHgPI2fTkVhV0EyHbtPOCxHYaMgzAAAzsFgPI2chZ4F9F0Fa4Tb7T6Har0RFv4g0DMDCPAeQcyVkq7Mzenvvo40/c/htvLnx/QPZrImSbNg5S/B7ofh5eLXl09Jkb5dddVrxuMu9nZfns+6Hj9HH+/ObCAAMwAANpM4CcIzmnMHKO5ayNyK73Ms6vl3IWIVtZyz42vebBMu0GSXyIDwzAgDCAnI2cVxGzVKYdDTf5HjfGWKoiYhk1+5HzKDwoFtLkrp9lQcLDgetlYSRdlz4+Br+5AMAADMBAugwg50LOq4pZIG8iZJs2biBWzuHJbZVwzw2G46e4e4NDNxz0nC4ln1np4+PwO92GSWyIDQzsNgPIuZDzOv/O2Yq47nvcCCty7uduVIyK4z+x8r+HucuHQd6Sj733HKePj8Pv3W78xJ/4w0C6DCBnM629Kqh14l1kXXzcipyLh7/8lLYX8XjkrA+GyUNimoeuq0uvaVim2yCJDbGBARgQBpBzi3Juq1HZ+8lt5Uk+NHgYgAEY6A4DyDlFOZupbBpTdxoTsSJWMAADbTGAnBOSc7hHfORGxRPZbQWZfLhgwAAMwEC3GEDOCcmZxtOtxkO8iBcMwMC6GEDOyLl8mGxdkJEvFzAYgAEYaMYAckbOyBkGYAAGYCAxBpBzYgGhd9msd0l9UV8wAAPbyAByRs70mGEABmAABhJjADknFpBt7AFyToxsYAAGYKAZA8i5RTn/+Od3nP28un/gLly8RI+0xTqmgTdr4NQX9QUD3WQAObcoDitm+/3y1WsIusV65mLTzYsNcSNuMLA4A8i5RWlYITf5DrCLA0tdUVcwAAO7wAByRs6M6ltkYBcuGpwjcoSB9TOAnFu8MDcZLdu0gL5+0Klj6hgGYKBLDCDnBOWsr4zM80M3GoV3Nev/3favgtR15nWSsj7vZ34UbNNW1mfXXW7+b7ceZ9DLnH6vHHOB/MvyTUnbpcZAWbl4wwAMpMIAck5WzkduOOgF2cZS7ed+WyZvrzLvchaogmSPIlGHd0CrgEXG47R2mz1mzw2G498K7EQeM8qi+7DkggcDMAADzRhAzsnKOUhTgI5Hwn70nF8v16vEx2nDaFsbQz8Psp4Qq5H+xLbewA2LEbrmM87/yEkZ9CMdBC2jLYvdj+/NGib1RX3BwG4zgJw7I+eqcG3D7Q0OvShlWjtIspq2fTlX859WFrue77t9oSH+xB8GmjGAnLsgZz/CnZxitrCLoGXUGkbA8bR2kGlW3Bcu703LtHhxD3pi5FykjUfCmn+8vq4sdh3fmzVM6ov6goHdZgA5d0DO0kh12rgyldzPx1PLZgraplX5akOX+9TjPPLyAbFYzv6YRadA05dS91Pe46ltP61t8zVl0eOy3O0LDfEn/jDQjAHk3KKcga8ZfNQX9QUDMAAD9QwgZ+TMPyGBARiAARhIjAHknFhA6EXW9yKpF+oFBmBglxhAzsiZHjMMwAAMwEBiDCDnxAKySz1DzpWREAzAAAzUM4CckTM9ZhiAARiAgcQYQM6JBYReZH0vknqhXmAABnaJAeSMnOkxwwAMwAAMJMYAck4sILvUM+RcGQnBAAzAQD0DyLlFOdt3NMv3V/cP3IWLl+iRtljHNOT6hky9UC8wsF0MIOcWxRHLWX9fvnoNQbdYz1yEtusiRDyJJwxMMoCcW5SGyrjpsk0w6/5Hdpv5k9dkI6JOqBMYgIG2GUDOyJlRfYsMtN1AyY+LPgzsJgPIucULc9MRs6Zvs/Exct7NhtwmQ+QFQzCweQaQc4Jy7ufmfcz+tY2HbtDL/AjXvw4yvz7+PgqvbhwVr2ks5dwfuGGxzb57WfLWV0DKqx6lEc7aZ9Y2GvDmGzAxIAYwsJ0MIOcE5SzvXC7F2c/dcHjoVLC9QfheSlOlLekGvUK0R240HLhelhXvgR7LXRuy3T98r99n1jbNi+V2XhyIK3GFgc0xgJxTlHNv4IaFXPv5oRvIKNj/7rnBMIjWj6CLkbEdCVvpasOqjMT7+XjkPCryikbnsp/uMy8/PQbLzTVi6p66h4HtYwA5pyjnTCV83eWllHPXN9IOcs5dPwvT3do4Y5lmPq8wTW73Cevr5VzZJxK33abHZLl9FwZiSkxhYLMMIOcE5SyNwk9fR9PZeR6mrmW7TjfrdLc2pHh9RcgyXV4z3T1zHy/no3Ja3eanx2S52UZM/VP/MLB9DCDnROUcJDi+Vxz/lsYY1lUf8NKRc54fltPXeb94mKwYRcs0+GiYu1ynyIvRcf0+110+OnR127ggbN8FgZgSUxhIgwHk3KKcuwq1Cl2fCLfnMWubTcf3NBo0cSAOMLAdDCBn5Dz+U6riyW/buJHzdjR0G1O+E1MYSJ8B5IyckTMM8F/iYAAGEmMAOScWEHq06fdoiRExggEYWDcDyBk502OGARiAARhIjAHknFhA1t0bI396/DAAAzCQPgPIGTnTY4YBGIABGEiMAeScWEDo0abfoyVGxAgGYGDdDCBn5EyPGQZgAAZgIDEGkPOJE07fq6zLV/cP3IWLl4A1MVjX3VMlf0ZDMAADqTCAnGvkrJK+fPUagkbQMAADMAADx85Ap+X8yKlT7sEHH6ytNFkv2xfpBamMmy4XyZs09MRhAAZgAAaaMtBpOR/cfsu9+977E4IWMct62b5IhTSVsqaP817lX12usm9cDn5zIYABGICBbjPQaTmrhK2g69bNg1Rl23QZ57uKYFfZNy4Hv7vdKIkf8YMBGOi0nAVgK+Mze3t+xGxlvQjkTaWs6W3eQa7V1zfKdvtax9Eod/0sc5l5daO8vvHXfyKvZZzc1+bPdxorDMAADOwOA52Xs8Cqgv7o409qp7nnAa2ybbqM841HvxO/+7kbDnou6+dulF+vTLnHaeO8+b07jZJYE2sYgIGtkLOALILef+PNifvPi0DeVMqaPs47FqwdNcsIWT4iZV0votY84n11PUsaKQzAAAzsHgNbI+dV4FXZNl3Gx4wFGyQcprLjtPK7Nzj0ws77MtUtU9uHblDzTuW6fVm3e42VmBNzGNgdBpDzjL9znifruKHEgg2/j/xUdpxWf4ug/VQ3ci5nEbRuWO7OhYhYE2sYqDKAnFuUs8DVz8ODXXpPWaewK9Pa/dyPmP00d/GQWN2+wFqFlfqgPmAABnaFAeTMf75hxAoDMAADMJAYA8g5sYDsSq+Q82QEBAMwAAPTGUDOyJkeMwzAAAzAQGIMIOfEAkJPcnpPkrqhbmAABnaFAeSMnOkxwwAMwAAMJMbAhJy/+cQ3HR/qAAZgAAZgAAY2xwBypjNCZwwGYAAGYCAxBpBzYgGhp7q5nip1T93DAAykwgByRs70mGEABmAABhJjADm3GJDnbj/p7Off7H/bPf3vHwf6Fus4lV4t5WCEBQMwsE4GkHMhjmcuP+P++y/+xj39naeXlqkVs/3+r/8EQa8TYvLmIgkDMLBtDCDnQs4i5f/9y7/zn2UFbYXc5HsM1bnvv+0+Hf2ze/v755buKMR58puLFwzAAAx0hwHkbKZcVxV0EyHbtDSY7jQYYkWsYAAGjoMB5GzkLBW+iqCtcJt8P45AcwwuKDAAAzDQHQaQcyRngffKc99zH338ifvrn/2s0bRyEyHbtHGDOXf+R+5DM639yofhNZT+FZMf/sidO/+ie/vTI/fhX46nvc/95Ydu9Onb7sXz51ycPs6f391poMSKWMHAbjKAnCM5pzByjuWsjdOu9zL+8Edl50GEbGUt+9j0mgfL3WzoxJ24w0C3GEDORs6riFnAt6PhJt/jRhNLVUQso2Y/ci5G1CHNh+6V8+eChItRs+RVlz4+Br+71VCJF/GCgd1iADkXcl5VzNJwmgjZpo0bnZVzeHJbJSzT2eOnuF+888/u0zsvOl1KPrPSx8fh9241duJNvGGgOwwg50LO6/w7Zyviuu9xg6nI2dxLjv/Eyv/+9EP34adB3pKPvfccp4+Pw+/uNFRiRaxgYLcYQM5mWntV+OvEu8i6+LgVORcPf/kpbS/i8chZHwwbmXvPuq4ufXwcfu9WYyfexBsGusMAcm5Rzm2Bb+8nt5Un+XSnURIrYgUDMICcU5SzmcqmkdJIYQAGYGD3GEDOCck53CM+ciPzN840yt1rlMScmMMADCDnhORMg6RBwgAMwAAMCFJYNu8AAAvCSURBVAPIGTmX/8iEiwIXBRiAARhIg4EJOZ84ccLxoQ5gAAZgAAZgYHMMIGc6I3TGYAAGYAAGEmMAOScWEHqqm+upUvfUPQzAQCoMIGfkTI8ZBmAABmAgMQaQc4sB+fHP7zj7eXX/wF24eAnoW6zjVHq1lIMRFgzAwDoZQM4tisOK2X6/fPUagm6xntfZIMibCy4MwEAKDCDnFqVhhdzkewogUAYuSDAAAzCQDgPIGTkzqm+RAS5u6VzciAWx6DIDyLnFC3OT0bJN22WAKDsXQBiAARhonwHknKCcs+y6y0eHLs8P3WiUu36Wuaw3cMPRkfOvgtR1Wc8NhmGdrM/7mR8F27SV9UW+g16RzvyuPeYC+Zflm5KWRtt+o6VOqVMY2H4GkHOycj5yw0EvyNZIVBpl1s/9NlmO8uuVaekg2aNI1IdOhKwCni5ne8wgfi2DXgwm8phRFt2H5fZfSIgxMYaBdhlAzsnKOQhVgI9Hwn70nF8v11uBhrRhtK2NpZ8HWU+I1Uh/YpsfqVfzaVoWPT7Ldhst9Ul9wsD2M4CcOyPnSVFqA+0NDv10t0xrH4+cFyuLlo/l9l9IiDExhoF2GUDOXZCzH+GOp5zrGoEIWkbQYQQcT2sHmWbFfeHy3rRMi4+mTXnPmtZerCx15WRduw2Y+qQ+YWA7GUDOHZCzNL54alvuNcs9Z5ni9tPcxUNicVqVrzbgyj557h88q7sf7fMpOgV6jFLq5uG0cop9Sln0uCy38wJCXIkrDKyHAeTcopyBdD2QUq/UKwzAwK4xgJyRc+Vp711rAJwvF30YgIEUGUDOyBk5wwAMwAAMJMYAck4sICn24CgTIwsYgAEYOF4GkDNypscMAzAAAzCQGAMTcv724+ccH+oABmAABmAABjbHAHKmM0JnDAZgAAZgIDEGkHNiAaGnurmeKnVP3cMADKTCAHJGzvSYYQAGYAAGEmOg03K++wePOPv55fNfc3968QyQJQZZKj1RysGoCAZgoCsMbJWcVdQvP/MYgkbQMAADMAADnWVgI3L+7uXvuGcuXqitNFkv2xfp3aiMmy4XyZs09LBhAAZgAAY2xcBG5Pw3v/iF+9tf/t2EoEXMsl62L1IhTaWs6eO8nzj/kLs5uNf1n/3GQseN92/y+ziP1aRcpOUiBAMwAAPpMLAROauEraDr1s0DRWXbdBnne5zCPM5jxefJ73QaHrEgFjAAA7MY2IicpUBWxlevfs+PmK2sZxVatzWVsqbX/WUZZHmPG9z+Tf85uPmQHz2/cHNynYr15s173cEgcy+c/4Z74tmT7vVBSPt6/2RlBG63Sfpr3/qKu1mklePpsWx5+E6DhQEYgAEY2JicBT4V9Ecff1I7zT0PUJVt02Wcr0q3blrbblORv94/7QWuv2++EKbDL/VF2mF63O4nx3vihczJfvH6uCz8plHCAAzAAAxsVM4CoAj6pz/76cT950XgbCplTR/nXSdMkWk5mp4mXBk1v3bSXTof5GzzsaPmMp+bDyFnnh5d+3MNMd/85kIPA91jYONyXgUalW3TZXxMK1XZFsRaTFufP+36r00ZDc+Vc8jDHi8+lt3G9+41IGJGzGAABtbBAHIu7zuPn9aWUfNBMSIOop4iZ/+U9z1u+rT2PX4q2wYOOdOQLQ98hwcYgIE6BpBzMc2qD4DJQ1pP+NFyeMjr4LXM3ZwycpYKtdPfsx4Isw+A2WPVBYV1NFYYgAEY2G0GOi3n1OC10+GplY3y7HZDJ/7EHwa6xQBybvEBJRkR63Q4DaFbDYF4ES8YgIGUGEDOK8jZTn/7aevib59TCjBl4YIDAzAAA91jADmvIGeA7x7wxIyYwQAMdIEB5Iyc+btbGIABGICBxBhAzokFpAs9OsrIyAMGYAAG1ssAckbO9JhhAAZgAAYSYwA5JxYQeqPr7Y1Sv9QvDMBAFxhAzsiZHjMMwAAMwEBiDCDnx8+5+H9z//L5r7k/vXgGWBODtQu9XcrIqAwGYKANBpBzjZxV1i8/8xiCRtAwAAMwAAPHzgByniFnlfS05aK9I152QU96UVZIByswAAPCAHJGzsfeI+Tiw8UHBmAABmYzgJyRM3Jmyg4GYAAGEmMAObcs5/j/bcu7nuNpbX1lpH2NZP1+p13/tfDqSkmr740Ob78qXmlZ/D/vuv3pmc7umVI/1A8MwECqDCDnFuWsgny9f7rSC43lrDDY9fJeaHmXtG6TZe268w+5m4N7Xf/Zb/i0kkaOV5fW5sV3LkIwAAMw0B0GkHObcn72pHu95s1UVsLSOESkMhIOb7IKotXRsBX7rHW6v8/j5kOuLi0NsTsNkVgRKxiAAcsAcj5mOQeJZu6F8zLdLdPW41GwBOZS/14vbZ3CjtfZ/W0g9Xvd/rqNJY0fBmAABrrBAHJuU85etvf4aWbbAOzI2U8/v3bSXRI5+5F2Vc6ynwjWjqDtupDX5DHs8er2t9v53o3GSZyIEwzsLgPIuUU5S0NSeeq0c/xAmN6X9tPRr2XuZjFyrk51FyPryvR3WOeP4aU+flBM7lXX7U/D3t2GTeyJPQx0mwHknNjj8zSobjco4kf8YAAG2mAAOSPnyhPibUBFHlycYAAGYGA1BpAzckbOMAADMAADiTGAnBMLCL3N1Xqb1B/1BwMwsA0MIGfkTI8ZBmAABmAgMQYm5HzixAnHhzqAARiAARiAgc0xgJzpjNAZgwEYgAEYSIwB5JxYQOipbq6nSt1T9zAAA6kwgJyRMz1mGIABGICBxBhAzokFJJVeG+VgBAEDMAADm2Og83I+9YO/cmd/8g9u7/av3cmzj7uv/9mb7uztX7nH/vM77uTeed8bfODCFXf6L95yZ978W/foyz9193/pQXqJdEpgAAZgAAaSZaDzcn7s1v/ychYhnx38Knz/yT/45e+/fsd99T/8RWWdiPyhq3+cbEAW7alm2XWXjw7doJd1/lwWPWfSba4XT91T9zBwvAx0Ws73P/BgKV4ZOT/yx6+4r37/h+U6EfFjf/U/3Vee77tHf/Tzcv3Df/CDzgsNOR9vQ+HCRH3DAAwcJwOdlvMXvvV0KdwHLl4thfvYG++H9YP/6+7/whf9+i9femGc9unvlWmPs7LbPBZy5kLRJk/kBU8wkBYDnZbzV67+USnczz/yqBfu/V/4Urnu9H/6SSnhr37/z8v1v3d6r1wvQJai6w/ccHTkjo4+c8NBr0yT9cbrZVveD1PJdfvJtt7g0OcR5xOO1XOD4VGZf9bP3Wg4cL0sqy3HtPzKYzOtXcaJi0taFxfiQTxgYHkGOi3n8mGwg793991/v79Iy0NhMp0tHxGywiEPhPn1t3/t7vv858v1sj2I7mgsSS/jcD9Xt5VCrtlWyrWfV8TuxTvKXT+r3hcOecp6uW883q7HWiS/kJZ7zhpflstfBKg76g4G0mOg03LWh8HsCPnLz1wr5fzAv/q3XsIi7r2Dv/fr5d5zDGKd6Pr5kR8hh1HzWKCyb7kteigrzif+bY8r4rajcNkWp5/1O95m8+Z7eg2NmBATGICBJgx0Vs72YbCv/uEPS+HKdx05/97ps379vzz1aLnukT96uUyrFRWLLsvC1LOMlpEzDUo5YQkLMAADx8VAZ+X8xfPjh8G+/J3nS+Ge/o+DIOLBr9x9/yJMX3+p991Szl++/GKZVis5yNncB/ZT12G0rNuq09p223hqeVLy4z93stvCd8mjblq7eX56Hiy5cMAADMDAdjDQWTnL3yqXI+Qz3wzCve8+t/df/49f/+jLf11K+OF/d6NM+4VvfLtcrxCrOPN8/CCXyljS2AfCRuZvi3U//VvjWb9128FTT1UeCJOHx8p7zA2myTU/PbaeC8vtaJjEkTjCwG4z0Fk5twkuotvtRtAmS+QFSzAAA20wgJxrHsRqo2LJgwYKAzAAAzCwLAPIGTlPTPMvCxP7cSGCARiAgXYYQM7843fkDAMwAAMwkBgDyDmxgNDrbKfXST1SjzAAA11mADkjZ3rMMAADMAADiTFg5fz/ARZ394FuFozNAAAAAElFTkSuQmCC;" vertex="1" parent="1">
          <mxGeometry x="-358" y="352" width="487" height="264" as="geometry" />
        </mxCell>
        <mxCell id="Y603PeoiF3RydWQMArEt-1" value="Assets" style="childLayout=tableLayout;recursiveResize=0;strokeColor=#98bf21;fillColor=#A7C942;shadow=1;" vertex="1" parent="1">
          <mxGeometry x="200" y="361" width="525" height="210" as="geometry" />
        </mxCell>
        <mxCell id="Y603PeoiF3RydWQMArEt-2" style="shape=tableRow;horizontal=0;startSize=0;swimlaneHead=0;swimlaneBody=0;top=0;left=0;bottom=0;right=0;dropTarget=0;collapsible=0;recursiveResize=0;expand=0;fontStyle=0;strokeColor=inherit;fillColor=#ffffff;" vertex="1" parent="Y603PeoiF3RydWQMArEt-1">
          <mxGeometry width="525" height="37" as="geometry" />
        </mxCell>
        <mxCell id="Y603PeoiF3RydWQMArEt-3" value="Directory" style="connectable=0;recursiveResize=0;strokeColor=inherit;fillColor=#A7C942;align=center;fontStyle=1;fontColor=#FFFFFF;html=1;" vertex="1" parent="Y603PeoiF3RydWQMArEt-2">
          <mxGeometry width="115" height="37" as="geometry">
            <mxRectangle width="115" height="37" as="alternateBounds" />
          </mxGeometry>
        </mxCell>
        <mxCell id="Y603PeoiF3RydWQMArEt-4" value="Description" style="connectable=0;recursiveResize=0;strokeColor=inherit;fillColor=#A7C942;align=center;fontStyle=1;fontColor=#FFFFFF;html=1;" vertex="1" parent="Y603PeoiF3RydWQMArEt-2">
          <mxGeometry x="115" width="410" height="37" as="geometry">
            <mxRectangle width="410" height="37" as="alternateBounds" />
          </mxGeometry>
        </mxCell>
        <mxCell id="Y603PeoiF3RydWQMArEt-6" value="" style="shape=tableRow;horizontal=0;startSize=0;swimlaneHead=0;swimlaneBody=0;top=0;left=0;bottom=0;right=0;dropTarget=0;collapsible=0;recursiveResize=0;expand=0;fontStyle=0;strokeColor=inherit;fillColor=#ffffff;" vertex="1" parent="Y603PeoiF3RydWQMArEt-1">
          <mxGeometry y="37" width="525" height="34" as="geometry" />
        </mxCell>
        <mxCell id="Y603PeoiF3RydWQMArEt-7" value="src/main/java" style="connectable=0;recursiveResize=0;strokeColor=inherit;fillColor=inherit;align=center;whiteSpace=wrap;html=1;" vertex="1" parent="Y603PeoiF3RydWQMArEt-6">
          <mxGeometry width="115" height="34" as="geometry">
            <mxRectangle width="115" height="34" as="alternateBounds" />
          </mxGeometry>
        </mxCell>
        <mxCell id="Y603PeoiF3RydWQMArEt-8" value="Your Java source code." style="connectable=0;recursiveResize=0;strokeColor=inherit;fillColor=inherit;align=center;whiteSpace=wrap;html=1;" vertex="1" parent="Y603PeoiF3RydWQMArEt-6">
          <mxGeometry x="115" width="410" height="34" as="geometry">
            <mxRectangle width="410" height="34" as="alternateBounds" />
          </mxGeometry>
        </mxCell>
        <mxCell id="Y603PeoiF3RydWQMArEt-10" value="" style="shape=tableRow;horizontal=0;startSize=0;swimlaneHead=0;swimlaneBody=0;top=0;left=0;bottom=0;right=0;dropTarget=0;collapsible=0;recursiveResize=0;expand=0;fontStyle=1;strokeColor=inherit;fillColor=#EAF2D3;" vertex="1" parent="Y603PeoiF3RydWQMArEt-1">
          <mxGeometry y="71" width="525" height="35" as="geometry" />
        </mxCell>
        <mxCell id="Y603PeoiF3RydWQMArEt-11" value="src/main/resources" style="connectable=0;recursiveResize=0;strokeColor=inherit;fillColor=inherit;whiteSpace=wrap;html=1;" vertex="1" parent="Y603PeoiF3RydWQMArEt-10">
          <mxGeometry width="115" height="35" as="geometry">
            <mxRectangle width="115" height="35" as="alternateBounds" />
          </mxGeometry>
        </mxCell>
        <mxCell id="Y603PeoiF3RydWQMArEt-12" value="Properties / config files used by your app." style="connectable=0;recursiveResize=0;strokeColor=inherit;fillColor=inherit;whiteSpace=wrap;html=1;" vertex="1" parent="Y603PeoiF3RydWQMArEt-10">
          <mxGeometry x="115" width="410" height="35" as="geometry">
            <mxRectangle width="410" height="35" as="alternateBounds" />
          </mxGeometry>
        </mxCell>
        <mxCell id="Y603PeoiF3RydWQMArEt-14" value="" style="shape=tableRow;horizontal=0;startSize=0;swimlaneHead=0;swimlaneBody=0;top=0;left=0;bottom=0;right=0;dropTarget=0;collapsible=0;recursiveResize=0;expand=0;fontStyle=0;strokeColor=inherit;fillColor=#ffffff;" vertex="1" parent="Y603PeoiF3RydWQMArEt-1">
          <mxGeometry y="106" width="525" height="36" as="geometry" />
        </mxCell>
        <mxCell id="Y603PeoiF3RydWQMArEt-15" value="src/main/webapp" style="connectable=0;recursiveResize=0;strokeColor=inherit;fillColor=inherit;fontStyle=0;align=center;whiteSpace=wrap;html=1;" vertex="1" parent="Y603PeoiF3RydWQMArEt-14">
          <mxGeometry width="115" height="36" as="geometry">
            <mxRectangle width="115" height="36" as="alternateBounds" />
          </mxGeometry>
        </mxCell>
        <mxCell id="Y603PeoiF3RydWQMArEt-16" value="JSP files and web config files other web assets (images, css, js, etc)." style="connectable=0;recursiveResize=0;strokeColor=inherit;fillColor=inherit;fontStyle=0;align=center;whiteSpace=wrap;html=1;" vertex="1" parent="Y603PeoiF3RydWQMArEt-14">
          <mxGeometry x="115" width="410" height="36" as="geometry">
            <mxRectangle width="410" height="36" as="alternateBounds" />
          </mxGeometry>
        </mxCell>
        <mxCell id="Y603PeoiF3RydWQMArEt-18" value="" style="shape=tableRow;horizontal=0;startSize=0;swimlaneHead=0;swimlaneBody=0;top=0;left=0;bottom=0;right=0;dropTarget=0;collapsible=0;recursiveResize=0;expand=0;fontStyle=1;strokeColor=inherit;fillColor=#EAF2D3;" vertex="1" parent="Y603PeoiF3RydWQMArEt-1">
          <mxGeometry y="142" width="525" height="34" as="geometry" />
        </mxCell>
        <mxCell id="Y603PeoiF3RydWQMArEt-19" value="src/test" style="connectable=0;recursiveResize=0;strokeColor=inherit;fillColor=inherit;whiteSpace=wrap;html=1;" vertex="1" parent="Y603PeoiF3RydWQMArEt-18">
          <mxGeometry width="115" height="34" as="geometry">
            <mxRectangle width="115" height="34" as="alternateBounds" />
          </mxGeometry>
        </mxCell>
        <mxCell id="Y603PeoiF3RydWQMArEt-20" value="Unit testing code and properties." style="connectable=0;recursiveResize=0;strokeColor=inherit;fillColor=inherit;whiteSpace=wrap;html=1;" vertex="1" parent="Y603PeoiF3RydWQMArEt-18">
          <mxGeometry x="115" width="410" height="34" as="geometry">
            <mxRectangle width="410" height="34" as="alternateBounds" />
          </mxGeometry>
        </mxCell>
        <mxCell id="Y603PeoiF3RydWQMArEt-22" style="shape=tableRow;horizontal=0;startSize=0;swimlaneHead=0;swimlaneBody=0;top=0;left=0;bottom=0;right=0;dropTarget=0;collapsible=0;recursiveResize=0;expand=0;fontStyle=1;strokeColor=inherit;fillColor=#EAF2D3;" vertex="1" parent="Y603PeoiF3RydWQMArEt-1">
          <mxGeometry y="176" width="525" height="34" as="geometry" />
        </mxCell>
        <mxCell id="Y603PeoiF3RydWQMArEt-23" value="target" style="connectable=0;recursiveResize=0;strokeColor=inherit;fillColor=inherit;whiteSpace=wrap;html=1;" vertex="1" parent="Y603PeoiF3RydWQMArEt-22">
          <mxGeometry width="115" height="34" as="geometry">
            <mxRectangle width="115" height="34" as="alternateBounds" />
          </mxGeometry>
        </mxCell>
        <mxCell id="Y603PeoiF3RydWQMArEt-24" value="Destination directory for compiled code automatically created by Maven." style="connectable=0;recursiveResize=0;strokeColor=inherit;fillColor=inherit;whiteSpace=wrap;html=1;" vertex="1" parent="Y603PeoiF3RydWQMArEt-22">
          <mxGeometry x="115" width="410" height="34" as="geometry">
            <mxRectangle width="410" height="34" as="alternateBounds" />
          </mxGeometry>
        </mxCell>
        <mxCell id="Y603PeoiF3RydWQMArEt-30" style="edgeStyle=orthogonalEdgeStyle;rounded=0;orthogonalLoop=1;jettySize=auto;html=1;entryX=0;entryY=0.5;entryDx=0;entryDy=0;strokeWidth=2;strokeColor=#FF0000;" edge="1" parent="1" source="Y603PeoiF3RydWQMArEt-26" target="Y603PeoiF3RydWQMArEt-6">
          <mxGeometry relative="1" as="geometry">
            <Array as="points">
              <mxPoint x="-70" y="445" />
              <mxPoint x="-70" y="415" />
            </Array>
          </mxGeometry>
        </mxCell>
        <mxCell id="Y603PeoiF3RydWQMArEt-26" value="" style="rounded=0;whiteSpace=wrap;html=1;strokeColor=#FF0000;fillColor=none;strokeWidth=2;" vertex="1" parent="1">
          <mxGeometry x="-300" y="435" width="90" height="20" as="geometry" />
        </mxCell>
        <mxCell id="Y603PeoiF3RydWQMArEt-31" style="edgeStyle=orthogonalEdgeStyle;rounded=0;orthogonalLoop=1;jettySize=auto;html=1;entryX=0;entryY=0.5;entryDx=0;entryDy=0;strokeWidth=2;strokeColor=#FF0000;" edge="1" parent="1" source="Y603PeoiF3RydWQMArEt-27" target="Y603PeoiF3RydWQMArEt-10">
          <mxGeometry relative="1" as="geometry" />
        </mxCell>
        <mxCell id="Y603PeoiF3RydWQMArEt-27" value="" style="rounded=0;whiteSpace=wrap;html=1;strokeColor=#FF0000;fillColor=none;strokeWidth=2;" vertex="1" parent="1">
          <mxGeometry x="-290" y="455" width="90" height="20" as="geometry" />
        </mxCell>
        <mxCell id="Y603PeoiF3RydWQMArEt-35" style="edgeStyle=orthogonalEdgeStyle;rounded=0;orthogonalLoop=1;jettySize=auto;html=1;strokeColor=#FF0000;strokeWidth=2;" edge="1" parent="1" source="Y603PeoiF3RydWQMArEt-28" target="Y603PeoiF3RydWQMArEt-14">
          <mxGeometry relative="1" as="geometry" />
        </mxCell>
        <mxCell id="Y603PeoiF3RydWQMArEt-28" value="" style="rounded=0;whiteSpace=wrap;html=1;strokeColor=#FF0000;fillColor=none;strokeWidth=2;" vertex="1" parent="1">
          <mxGeometry x="-290" y="475" width="90" height="20" as="geometry" />
        </mxCell>
        <mxCell id="Y603PeoiF3RydWQMArEt-33" style="edgeStyle=orthogonalEdgeStyle;rounded=0;orthogonalLoop=1;jettySize=auto;html=1;strokeWidth=2;strokeColor=#FF0000;" edge="1" parent="1" source="Y603PeoiF3RydWQMArEt-29" target="Y603PeoiF3RydWQMArEt-18">
          <mxGeometry relative="1" as="geometry">
            <Array as="points">
              <mxPoint x="-40" y="505" />
              <mxPoint x="-40" y="520" />
            </Array>
          </mxGeometry>
        </mxCell>
        <mxCell id="Y603PeoiF3RydWQMArEt-29" value="" style="rounded=0;whiteSpace=wrap;html=1;strokeColor=#FF0000;fillColor=none;strokeWidth=2;" vertex="1" parent="1">
          <mxGeometry x="-318" y="495" width="90" height="20" as="geometry" />
        </mxCell>
        <mxCell id="Y603PeoiF3RydWQMArEt-38" style="edgeStyle=orthogonalEdgeStyle;rounded=0;orthogonalLoop=1;jettySize=auto;html=1;strokeWidth=2;strokeColor=#FF0000;" edge="1" parent="1" source="Y603PeoiF3RydWQMArEt-37" target="Y603PeoiF3RydWQMArEt-22">
          <mxGeometry relative="1" as="geometry" />
        </mxCell>
        <mxCell id="Y603PeoiF3RydWQMArEt-37" value="" style="rounded=0;whiteSpace=wrap;html=1;strokeColor=#FF0000;fillColor=none;strokeWidth=2;" vertex="1" parent="1">
          <mxGeometry x="-340" y="556" width="90" height="20" as="geometry" />
        </mxCell>
      </root>
    </mxGraphModel>
  </diagram>
</mxfile>
